<?xml version="1.0"?>
<svg xmlns="http://www.w3.org/2000/svg" viewBox="0 0 64 64" width="512" height="512"><title>Design-planning-Blueprint-Architecture-construction</title><g id="Expand"><rect x="31" y="43" width="2" height="2"/><path d="M4,9A5.006,5.006,0,0,1,9,4h3V2H9A7.008,7.008,0,0,0,2,9V21H4Z"/><rect x="2" y="23" width="2" height="2"/><rect x="60" y="21" width="2" height="21"/><path d="M6,10V45a4,4,0,0,0,4,4H24.3l-3.889,7H15a3,3,0,0,0-3,3,2.966,2.966,0,0,0,.184,1H7v2H57V60H51.816A2.966,2.966,0,0,0,52,59a3,3,0,0,0-3-3H43.588L39.7,49H54a4,4,0,0,0,4-4V10a4,4,0,0,0-4-4H10A4,4,0,0,0,6,10ZM56,39H8V16H56ZM50,59a1,1,0,0,1-1,1H15a1,1,0,0,1,0-2H49A1,1,0,0,1,50,59Zm-8.7-3H22.7l3.889-7H37.412ZM56,45a2,2,0,0,1-2,2H10a2,2,0,0,1-2-2V41H56Zm0-35v4H8V10a2,2,0,0,1,2-2H54A2,2,0,0,1,56,10Z"/><rect x="10" y="10" width="2" height="2"/><rect x="14" y="10" width="2" height="2"/><rect x="18" y="10" width="2" height="2"/><rect x="3" y="60" width="2" height="2"/><path d="M49,36h4a1,1,0,0,0,1-1V19a1,1,0,0,0-1-1H49a1,1,0,0,0-1,1V35A1,1,0,0,0,49,36Zm1-16h2V34H50Z"/><path d="M12,36h9a1,1,0,0,0,1-1V32H20v2H13V28h2V26H13V21H29v5H24v2h6a1,1,0,0,0,1-1V20a1,1,0,0,0-1-1H12a1,1,0,0,0-1,1V35A1,1,0,0,0,12,36Z"/><polygon points="20 26 17 26 17 28 20 28 20 30 22 30 22 27 22 23 20 23 20 26"/><rect x="36" y="19" width="2" height="2"/><rect x="40" y="19" width="5" height="2"/><rect x="34" y="23" width="11" height="2"/><rect x="34" y="27" width="11" height="2"/><rect x="34" y="31" width="8" height="2"/></g></svg>
